<?xml version="1.0" encoding="UTF-8"?>
<svg version="1.1" xmlns="http://www.w3.org/2000/svg" width="472" height="84">
<path d="M0 0 C5.75756324 1.62392809 9.03713289 8.89203808 11.88671875 13.78125 C16.23097782 21.92263223 21.17027418 31.26333609 21.4375 40.6875 C20.4375 43.8125 20.4375 43.8125 18.4375 45.6875 C15.22331673 46.22319721 13.38556392 46.36468851 10.6875 44.4375 C9.4375 42.6875 9.4375 42.6875 8.625 40.5625 C7.56362254 38.43719592 7.56362254 38.43719592 5 37.9375 C3.824375 37.855 2.64875 37.7725 1.4375 37.6875 C0.56996094 37.57792969 -0.29757812 37.46835937 -1.19140625 37.35546875 C-4.17993075 37.11557359 -6.62547326 37.06000467 -9.5625 37.6875 C-12.23002614 40.01250333 -13.85923172 42.61251565 -15.5625 45.6875 C-16.5625 46.6875 -16.5625 46.6875 -19 46.9375 C-19.845625 46.855 -20.69125 46.7725 -21.5625 46.6875 C-23.5625 43.6875 -23.5625 43.6875 -23 39.8125 C-20.6250947 30.53692646 -16.76007588 21.79450337 -12.625 13.1875 C-12.31353027 12.51710693 -12.00206055 11.84671387 -11.68115234 11.15600586 C-9.11437473 5.9681861 -5.86337007 1.57309929 0 0 Z M-1.5625 16.6875 C-3.0231285 19.33488916 -3.5625 20.58198334 -3.5625 23.6875 C-1.5825 23.6875 0.3975 23.6875 2.4375 23.6875 C1.83566251 21.66704558 1.16443904 19.66638961 0.4375 17.6875 C-0.2225 17.3575 -0.8825 17.0275 -1.5625 16.6875 Z " fill="#FC7829" transform="translate(310.5625,15.3125)"/>
<path d="M0 0 C6.07957167 0.55051239 11.6514568 1.5310403 17.5 3.25 C18.64263306 3.57726074 18.64263306 3.57726074 19.80834961 3.91113281 C21.39910669 4.36829766 22.98886738 4.82894312 24.57763672 5.29296875 C27.01949371 6.00568976 29.46447258 6.70678545 31.91015625 7.40625 C33.46113028 7.8534987 35.0119187 8.30139165 36.5625 8.75 C37.2946875 8.96043945 38.026875 9.17087891 38.78125 9.38769531 C43.88364785 10.88364785 43.88364785 10.88364785 45 12 C45.07226502 13.85287502 45.0838122 15.70833878 45.0625 17.5625 C45.05347656 18.57441406 45.04445313 19.58632813 45.03515625 20.62890625 C45.02355469 21.41136719 45.01195312 22.19382812 45 23 C38.28464969 25.66495091 31.46227111 27.64684552 24.5 29.5625 C22.86611328 30.01786133 22.86611328 30.01786133 21.19921875 30.48242188 C18.13567337 31.3325835 15.06915545 32.17034271 12 33 C11.20078125 33.21769043 10.4015625 33.43538086 9.578125 33.65966797 C6.22711019 34.54163645 3.4974793 35 0 35 C0 31.04 0 27.08 0 23 C4.69493691 20.80236996 9.08871922 19.41336612 14.1796875 18.4296875 C16.00897624 18.16627189 16.00897624 18.16627189 17 17 C15.85660156 16.72285156 14.71320313 16.44570313 13.53515625 16.16015625 C12.04422535 15.79445622 10.55334239 15.42856071 9.0625 15.0625 C7.93038086 14.78889648 7.93038086 14.78889648 6.77539062 14.50976562 C1.11328125 13.11328125 1.11328125 13.11328125 0 12 C-0.07244053 9.98035801 -0.08377188 7.95832876 -0.0625 5.9375 C-0.05347656 4.83277344 -0.04445313 3.72804688 -0.03515625 2.58984375 C-0.02355469 1.73519531 -0.01195312 0.88054688 0 0 Z " fill="#C3C3C3" transform="translate(423,27)"/>
<path d="M0 0 C4.29 0 8.58 0 13 0 C12.44154224 6.15139327 11.43081345 11.81730242 9.7421875 17.75 C9.51808701 18.55856445 9.29398651 19.36712891 9.06309509 20.20019531 C8.34028747 22.80201003 7.6078001 25.40098393 6.875 28 C6.37528341 29.79149613 5.87618196 31.58316396 5.37768555 33.375 C4.15115414 37.77791023 2.91693685 42.17861859 1.67999268 46.57861328 C0.68724409 50.1136929 -0.29913012 53.65054064 -1.28515625 57.1875 C-2.84955559 62.7937145 -4.4216584 68.39769536 -6 74 C-10.29 74 -14.58 74 -19 74 C-17.62630193 66.72670006 -15.90275853 59.63403453 -13.9375 52.5 C-13.31825962 50.22676689 -12.69981389 47.95331721 -12.08203125 45.6796875 C-11.75025879 44.45991211 -11.41848633 43.24013672 -11.07666016 41.98339844 C-9.05945171 34.539523 -7.0961521 27.08117044 -5.125 19.625 C-4.72779965 18.1243446 -4.33058322 16.62369347 -3.93334961 15.12304688 C-1.93241457 7.57039001 -1.93241457 7.57039001 0 0 Z " fill="#C6C6C6" transform="translate(411,5)"/>
<path d="M0 0 C0 3.96 0 7.92 0 12 C-5.30652047 13.79605308 -10.6007977 15.50660362 -16 17 C-12.85348016 18.72647526 -9.78450673 19.67711511 -6.3125 20.5625 C-1.10676157 21.89323843 -1.10676157 21.89323843 0 23 C0.07244053 25.01964199 0.08377188 27.04167124 0.0625 29.0625 C0.05347656 30.16722656 0.04445312 31.27195312 0.03515625 32.41015625 C0.02355469 33.26480469 0.01195312 34.11945312 0 35 C-6.7925974 34.27257278 -13.2371322 32.43014919 -19.8125 30.625 C-20.93720703 30.32078125 -22.06191406 30.0165625 -23.22070312 29.703125 C-42.55437575 24.44562425 -42.55437575 24.44562425 -44 23 C-44.07244053 20.98035801 -44.08377188 18.95832876 -44.0625 16.9375 C-44.05347656 15.83277344 -44.04445313 14.72804688 -44.03515625 13.58984375 C-44.02355469 12.73519531 -44.01195312 11.88054688 -44 11 C-39.10774747 9.59159539 -34.21474725 8.18582951 -29.32104492 6.7824707 C-27.65742678 6.30500015 -25.99401282 5.82681756 -24.33081055 5.34790039 C-21.9359219 4.65843021 -19.54030324 3.97154982 -17.14453125 3.28515625 C-16.4047554 3.07157974 -15.66497955 2.85800323 -14.90278625 2.63795471 C-9.80854399 1.18222146 -5.30522818 0 0 0 Z " fill="#C0C0C0" transform="translate(50,27)"/>
<path d="M0 0 C1.67422986 0.29299023 3.34178227 0.62690101 5 1 C5.66 0.67 6.32 0.34 7 0 C11.17883711 -0.66139868 15.22700431 -1.06521298 18.95703125 1.17578125 C23.03685188 5.33501444 23.95667305 9.70125297 24.16796875 15.4140625 C23.85553116 20.22414823 22.05837241 22.84824179 18.875 26.3125 C14.99629709 28.58912997 11.43309931 28.80683663 7 29 C7.02320313 29.74765625 7.04640625 30.4953125 7.0703125 31.265625 C7.09738281 32.74289063 7.09738281 32.74289063 7.125 34.25 C7.14820313 35.22453125 7.17140625 36.1990625 7.1953125 37.203125 C6.99622557 40.05404985 6.58596943 41.64277147 5 44 C2.131446 45.05683569 0.63685855 45.2299767 -2.25 44.1875 C-4 43 -4 43 -5 41 C-5.9975641 28.09514809 -5.68083056 14.47767791 -2 2 C-1.34 1.34 -0.68 0.68 0 0 Z M10 10 C7.32668287 12.71003293 7.32668287 12.71003293 6 16 C8.31 16 10.62 16 13 16 C13.33 14.35 13.66 12.7 14 11 C12.68 10.67 11.36 10.34 10 10 Z " fill="#FC7A2C" transform="translate(339,34)"/>
<path d="M0 0 C0.78375 0.185625 1.5675 0.37125 2.375 0.5625 C4.97089775 1.25962266 4.97089775 1.25962266 7 0 C12.07137354 -0.62831177 15.78146785 -0.88851302 20 2.1875 C24.08277838 7.9289071 24.88246288 13.02966029 24 20 C22.07121678 24.24332309 20.68758035 25.63745764 16.5625 27.8125 C13.67690254 28.77436582 10.97612134 29.44357251 8 30 C7.81824219 31.26457031 7.81824219 31.26457031 7.6328125 32.5546875 C7.38144531 34.19824219 7.38144531 34.19824219 7.125 35.875 C6.96257812 36.96554688 6.80015625 38.05609375 6.6328125 39.1796875 C6 42 6 42 4 44 C1.0625 44.375 1.0625 44.375 -2 44 C-4.69916739 41.54103955 -4.99964775 40.00323584 -5.3984375 36.33984375 C-5.41089177 34.87242789 -5.40178279 33.40472429 -5.375 31.9375 C-5.36412354 30.76658813 -5.36412354 30.76658813 -5.35302734 29.57202148 C-4.84275232 7.26412848 -4.84275232 7.26412848 0 0 Z M10 10 C7.65712582 12.67247634 7.65712582 12.67247634 7 16 C8.98 16 10.96 16 13 16 C13.33 14.35 13.66 12.7 14 11 C12.68 10.67 11.36 10.34 10 10 Z " fill="#FB8740" transform="translate(370,34)"/>
<path d="M0 0 C1.96453125 -0.03867187 1.96453125 -0.03867187 3.96875 -0.078125 C7.6036698 0.25963303 9.01049033 0.64223862 11.5 3.25 C12 5.6875 12 5.6875 11.5 8.25 C9.859375 10.39453125 9.859375 10.39453125 7.5 12.25 C4.484375 12.640625 4.484375 12.640625 1.25 12.5 C0.17234375 12.46390625 -0.9053125 12.4278125 -2.015625 12.390625 C-3.24539062 12.32101563 -3.24539062 12.32101563 -4.5 12.25 C-4.5 14.89 -4.5 17.53 -4.5 20.25 C-3.52417969 20.22679688 -2.54835938 20.20359375 -1.54296875 20.1796875 C-0.27066406 20.16164063 1.00164062 20.14359375 2.3125 20.125 C3.57707031 20.10179688 4.84164062 20.07859375 6.14453125 20.0546875 C9.5 20.25 9.5 20.25 12.5 22.25 C12.9375 25.6875 12.9375 25.6875 12.5 29.25 C9.39112266 32.44049464 6.58693521 32.701797 2.25 32.9375 C1.17234375 33.00324219 0.0946875 33.06898437 -1.015625 33.13671875 C-2.24539062 33.19279297 -2.24539062 33.19279297 -3.5 33.25 C-3.54898438 33.92546875 -3.59796875 34.6009375 -3.6484375 35.296875 C-3.72320312 36.18890625 -3.79796875 37.0809375 -3.875 38 C-3.94460937 38.88171875 -4.01421875 39.7634375 -4.0859375 40.671875 C-4.50722742 43.29500089 -5.03570697 45.03861868 -6.5 47.25 C-9.5 48.25 -9.5 48.25 -11.625 47.5 C-13.5 46.25 -13.5 46.25 -14.5 43.25 C-14.62124154 40.33579434 -14.68816644 37.44625534 -14.703125 34.53125 C-14.70882507 33.67696411 -14.71452515 32.82267822 -14.72039795 31.94250488 C-14.72983911 30.13697547 -14.73637842 28.33142889 -14.74023438 26.52587891 C-14.74996328 23.76043894 -14.78100382 20.99573504 -14.8125 18.23046875 C-14.81902797 16.47656692 -14.82427925 14.72265977 -14.828125 12.96875 C-14.8404718 12.14056763 -14.8528186 11.31238525 -14.86553955 10.45910645 C-14.84297195 4.66211081 -14.84297195 4.66211081 -13.08514404 2.54992676 C-9.35160377 -0.51183216 -4.62689556 0.05464837 0 0 Z " fill="#FC792A" transform="translate(73.5,16.75)"/>
<path d="M0 0 C3.3125 1.125 3.3125 1.125 6 4 C8.33530628 10.99710637 9.83459081 18.6277812 9 26 C7.875 28.0625 7.875 28.0625 6 29 C2.76800909 28.73066742 0.07414286 28.02471429 -3 27 C-5.10046079 27.42817238 -5.10046079 27.42817238 -7.3125 28.125 C-10.76078089 28.94922324 -11.86125472 29.04367907 -15.375 27.9375 C-18.38381846 25.71670542 -19.69911063 24.52005358 -21 21 C-21.26705333 14.98017282 -19.91944588 10.66096267 -16 6 C-10.8771425 1.16538512 -7.15739326 -0.83969418 0 0 Z M-8 12 C-8.66 13.65 -9.32 15.3 -10 17 C-8.00016466 16.20882096 -8.00016466 16.20882096 -6 15 C-5.67 14.01 -5.34 13.02 -5 12 C-5.99 12 -6.98 12 -8 12 Z " fill="#FA833B" transform="translate(155,31)"/>
<path d="M0 0 C4.51712102 3.69582629 4.82284701 8.6803145 5.75 14.25 C5.91628906 15.19746094 6.08257812 16.14492188 6.25390625 17.12109375 C7.16965297 23.6084363 7.16965297 23.6084363 5.2578125 26.53125 C4.51144531 27.38203125 4.51144531 27.38203125 3.75 28.25 C0.28058454 27.79177532 -2.92395049 27.35868317 -6.25 26.25 C-7.508125 26.62125 -8.76625 26.9925 -10.0625 27.375 C-13.36418058 28.27325133 -14.14116942 28.28696133 -17.5625 27.125 C-20.24912802 25.25060836 -21.7901895 24.16962101 -23.25 21.25 C-24.01678997 14.47668859 -21.97462497 9.2657192 -17.875 3.9375 C-12.59338863 -1.46986402 -7.20484576 -1.66265671 0 0 Z M-10.25 11.25 C-10.91 12.9 -11.57 14.55 -12.25 16.25 C-10.93 15.59 -9.61 14.93 -8.25 14.25 C-8.25 13.26 -8.25 12.27 -8.25 11.25 C-8.91 11.25 -9.57 11.25 -10.25 11.25 Z " fill="#FB8036" transform="translate(264.25,31.75)"/>
<path d="M0 0 C1.34187818 0.6492959 2.67479497 1.31731862 4 2 C7.18490007 2.2773501 7.18490007 2.2773501 10 0 C13.56053213 -0.3296789 16.28138016 -0.23396925 19.6875 0.875 C23.86147036 4.71054034 25.61660866 9.9518022 26.31640625 15.515625 C26.41913357 19.65211184 26.04668247 22.34871848 24 26 C17.58131488 26.48442907 17.58131488 26.48442907 15.125 24.4375 C13.68620834 21.32011808 13.32703401 18.4011537 13 15 C10.40345761 17.29324257 9.22402063 19.42692848 7.9375 22.625 C6.21884498 26.89057751 6.21884498 26.89057751 4 28 C1 28.1875 1 28.1875 -2 28 C-4.47807047 25.52192953 -4.25650238 24.76407532 -4.265625 21.3515625 C-4.26949219 19.96710937 -4.26949219 19.96710937 -4.2734375 18.5546875 C-4.26570312 17.58789062 -4.25796875 16.62109375 -4.25 15.625 C-4.25773438 14.6659375 -4.26546875 13.706875 -4.2734375 12.71875 C-4.27085937 11.79320312 -4.26828125 10.86765625 -4.265625 9.9140625 C-4.26336914 9.0679541 -4.26111328 8.2218457 -4.25878906 7.35009766 C-3.97647311 4.78634923 -3.3726191 3.17381748 -2 1 C-1.34 0.67 -0.68 0.34 0 0 Z " fill="#FC7B2E" transform="translate(171,33)"/>
<path d="M0 0 C1.68076231 0.63028587 3.34795544 1.29788106 5 2 C7.05714024 2.15940005 7.05714024 2.15940005 8.84375 0.99609375 C12.55544981 -0.71855019 16.14330492 -0.09379566 20 1 C24.09323905 4.67341966 25.77308603 9.01702673 26.1875 14.46484375 C26.3720382 22.31925106 26.3720382 22.31925106 24 26 C21.625 27 21.625 27 19 27 C16.75 25.625 16.75 25.625 15 23 C14.38284342 20.0067906 14.1303588 17.05039601 14 14 C9.4434473 17.71274665 7.42599607 22.79007402 5 28 C1.625 28.1875 1.625 28.1875 -2 28 C-4.01616137 24.97575795 -4.25469543 24.37292899 -4.265625 20.98046875 C-4.26820312 20.20509766 -4.27078125 19.42972656 -4.2734375 18.63085938 C-4.26570313 17.82455078 -4.25796875 17.01824219 -4.25 16.1875 C-4.25773437 15.39279297 -4.26546875 14.59808594 -4.2734375 13.77929688 C-4.25816086 9.16193273 -3.9129986 5.29077504 -2 1 C-1.34 0.67 -0.68 0.34 0 0 Z " fill="#FA8D4B" transform="translate(106,33)"/>
<path d="M0 0 C2.29013653 3.4352048 2.17842973 4.985331 2 9 C-1.69541586 9.95024979 -4.30458414 9.95024979 -8 9 C-10.29013653 12.4352048 -10.17842973 13.985331 -10 18 C-9.15695313 17.97679688 -8.31390625 17.95359375 -7.4453125 17.9296875 C-5.80175781 17.90261719 -5.80175781 17.90261719 -4.125 17.875 C-2.48917969 17.84019531 -2.48917969 17.84019531 -0.8203125 17.8046875 C2 18 2 18 4 20 C4 22.9375 4 22.9375 3 26 C-1.48373987 29.63546476 -6.66268729 29.55947491 -12.21484375 29.421875 C-15 29 -15 29 -18.125 26.75 C-18.74375 25.8425 -19.3625 24.935 -20 24 C-20.433125 23.38125 -20.86625 22.7625 -21.3125 22.125 C-22.77264689 17.61181869 -22.29349598 13.88048793 -20.8125 9.4375 C-18.12499857 4.34051452 -15.5776914 0.96414474 -10.625 -2.0625 C-5.98195068 -3.26328862 -4.07548735 -2.3973455 0 0 Z " fill="#FC792A" transform="translate(221,32)"/>
<path d="M0 0 C3.16115776 1.36983503 3.9927092 1.9890638 6 5 C7.26055846 12.51578252 7.13740538 20.39035851 7.25 28 C7.27143066 28.81275391 7.29286133 29.62550781 7.31494141 30.46289062 C7.3411521 35.13421842 7.05770762 38.21497358 4 42 C1.030755 43.29904469 0.15849546 43.05283182 -3 42 C-5.07899855 38.93061067 -5.24674781 36.35936304 -5.23046875 32.7109375 C-5.22756836 31.17373047 -5.22756836 31.17373047 -5.22460938 29.60546875 C-5.21236328 28.53941406 -5.20011719 27.47335938 -5.1875 26.375 C-5.18685547 25.33214844 -5.18621094 24.28929687 -5.18554688 23.21484375 C-5.0853588 5.38136574 -5.0853588 5.38136574 -1.9375 1.375 C-1.298125 0.92125 -0.65875 0.4675 0 0 Z " fill="#FC985B" transform="translate(278,18)"/>
<path d="M0 0 C4.29 0 8.58 0 13 0 C12.44154224 6.15139327 11.43081345 11.81730242 9.7421875 17.75 C9.51808701 18.55856445 9.29398651 19.36712891 9.06309509 20.20019531 C8.34028747 22.80201003 7.6078001 25.40098393 6.875 28 C6.37528341 29.79149613 5.87618196 31.58316396 5.37768555 33.375 C4.15115414 37.77791023 2.91693685 42.17861859 1.67999268 46.57861328 C0.68724409 50.1136929 -0.29913012 53.65054064 -1.28515625 57.1875 C-2.84955559 62.7937145 -4.4216584 68.39769536 -6 74 C-10.29 74 -14.58 74 -19 74 C-17.62167807 66.68017382 -15.87642407 59.54756759 -13.875 52.375 C-13.45927734 50.86873047 -13.45927734 50.86873047 -13.03515625 49.33203125 C-12.35989931 46.88713545 -11.68147179 44.44316934 -11 42 C-10.34 42 -9.68 42 -9 42 C-9.47986031 47.56890517 -10.29915181 52.67067568 -12 58 C-10.515 57.505 -10.515 57.505 -9 57 C-9 57.99 -9 58.98 -9 60 C-7.03557765 59.92397528 -7.03557765 59.92397528 -5 59 C-3.77453684 56.60837087 -3.77453684 56.60837087 -3.03515625 53.55078125 C-2.70531738 52.37080566 -2.37547852 51.19083008 -2.03564453 49.97509766 C-1.6881283 48.65066683 -1.34300208 47.32560708 -1 46 C-0.81910828 45.31274841 -0.63821655 44.62549683 -0.45184326 43.91741943 C1.12753479 37.90418163 2.64135472 31.87476893 4.14819336 25.84301758 C4.7212194 23.55450532 5.29982794 21.26745583 5.87890625 18.98046875 C6.04773819 18.29695847 6.21657013 17.61344818 6.39051819 16.90922546 C7.60482956 12.12493017 9.20402362 7.59848192 11 3 C8.03 3 5.06 3 2 3 C1.34 4.32 0.68 5.64 0 7 C0 4.69 0 2.38 0 0 Z " fill="#C5C5C5" transform="translate(411,5)"/>
<path d="M0 0 C1.67422986 0.29299023 3.34178227 0.62690101 5 1 C5.66 0.67 6.32 0.34 7 0 C11.17883711 -0.66139868 15.22700431 -1.06521298 18.95703125 1.17578125 C23.03685188 5.33501444 23.95667305 9.70125297 24.16796875 15.4140625 C23.85553116 20.22414823 22.05837241 22.84824179 18.875 26.3125 C14.99629709 28.58912997 11.43309931 28.80683663 7 29 C7.02320313 29.74765625 7.04640625 30.4953125 7.0703125 31.265625 C7.09738281 32.74289063 7.09738281 32.74289063 7.125 34.25 C7.14820313 35.22453125 7.17140625 36.1990625 7.1953125 37.203125 C6.99622557 40.05404985 6.58596943 41.64277147 5 44 C2.131446 45.05683569 0.63685855 45.2299767 -2.25 44.1875 C-4 43 -4 43 -5 41 C-5.9975641 28.09514809 -5.68083056 14.47767791 -2 2 C-1.34 1.34 -0.68 0.68 0 0 Z M14 6 C14 9.63 14 13.26 14 17 C8.61590585 16.65263909 8.61590585 16.65263909 6 16 C4.5625 14.125 4.5625 14.125 4 12 C3.67 11.01 3.34 10.02 3 9 C2.34 9.66 1.68 10.32 1 11 C0.34 10.34 -0.32 9.68 -1 9 C-1 10.32 -1 11.64 -1 13 C-1.66 13 -2.32 13 -3 13 C-3.04939662 16.95096978 -3.08571755 20.9018203 -3.10986328 24.85302734 C-3.12488107 26.8591136 -3.15028981 28.86511324 -3.17578125 30.87109375 C-3.18222656 32.12792969 -3.18867188 33.38476562 -3.1953125 34.6796875 C-3.20578613 35.84226074 -3.21625977 37.00483398 -3.22705078 38.20263672 C-3.29261997 41.13910279 -3.29261997 41.13910279 -1 43 C1.54713404 42.99077298 1.54713404 42.99077298 4 42 C6.18003742 38.78184952 6.21586872 36.06648628 6.125 32.25 C6.09792969 30.77273437 6.09792969 30.77273437 6.0703125 29.265625 C6.04710937 28.51796875 6.02390625 27.7703125 6 27 C7.03125 27.061875 8.0625 27.12375 9.125 27.1875 C13.9753337 26.95280643 17.22746099 25.8186334 20.65234375 22.3046875 C22.45958158 19.21404889 22.36470348 16.93286799 22.3125 13.375 C22.30669922 11.65410156 22.30669922 11.65410156 22.30078125 9.8984375 C22.29476042 6.87453189 22.29476042 6.87453189 20 5 C16.2236068 4.7018576 16.2236068 4.7018576 14 6 Z M10 10 C7.32668287 12.71003293 7.32668287 12.71003293 6 16 C8.31 16 10.62 16 13 16 C13.33 14.35 13.66 12.7 14 11 C12.68 10.67 11.36 10.34 10 10 Z " fill="#F99050" transform="translate(339,34)"/>
<path d="M0 0 C-0.375 1.9375 -0.375 1.9375 -1 4 C-1.99 4.495 -1.99 4.495 -3 5 C-3 6.32 -3 7.64 -3 9 C-0.36 9.33 2.28 9.66 5 10 C5.33 7.03 5.66 4.06 6 1 C6.99 1 7.98 1 9 1 C9.33 2.32 9.66 3.64 10 5 C11.32 4.34 12.64 3.68 14 3 C14.33 3.33 14.66 3.66 15 4 C14.979375 4.969375 14.95875 5.93875 14.9375 6.9375 C14.64862426 10.11031214 14.64862426 10.11031214 17 12 C17.25 14.5 17.25 14.5 17 17 C16.34 17.66 15.68 18.32 15 19 C11.9375 18.75 11.9375 18.75 9 18 C8.67 17.34 8.34 16.68 8 16 C6.9790625 16.4640625 6.9790625 16.4640625 5.9375 16.9375 C1.34152379 18.59987437 -2.29352863 19.77904128 -6.875 17.6875 C-9 16 -9 16 -10 14 C-10.06996014 12.29297265 -10.08440154 10.58331997 -10.0625 8.875 C-10.05347656 7.96492188 -10.04445312 7.05484375 -10.03515625 6.1171875 C-10.02355469 5.41851562 -10.01195312 4.71984375 -10 4 C-9.34 4 -8.68 4 -8 4 C-7.896875 3.360625 -7.79375 2.72125 -7.6875 2.0625 C-7.460625 1.381875 -7.23375 0.70125 -7 0 C-3.86650268 -1.04449911 -3.01031744 -0.93423645 0 0 Z " fill="#FC792B" transform="translate(146,39)"/>
<path d="M0 0 C0.99 0.33 1.98 0.66 3 1 C3.74737188 6.97897503 1.3231898 10.32379721 -2 15 C-0.35 15 1.3 15 3 15 C3.33 14.34 3.66 13.68 4 13 C5.65 13.33 7.3 13.66 9 14 C9 14.99 9 15.98 9 17 C9.66 17.33 10.32 17.66 11 18 C11 17.34 11 16.68 11 16 C12.65 16.33 14.3 16.66 16 17 C15.125 21.75 15.125 21.75 14 24 C12.0625 23.6875 12.0625 23.6875 10 23 C9.67 22.01 9.34 21.02 9 20 C8.48050781 20.28875 7.96101563 20.5775 7.42578125 20.875 C-0.04911906 24.85424453 -0.04911906 24.85424453 -4 24 C-6.8125 22.5625 -6.8125 22.5625 -9 20 C-9.67425728 16.88446638 -9.63089861 14.12099401 -9 11 C-7 8.125 -7 8.125 -5 6 C-5 5.01 -5 4.02 -5 3 C-3.68 3.33 -2.36 3.66 -1 4 C-0.67 2.68 -0.34 1.36 0 0 Z " fill="#FC7829" transform="translate(252,34)"/>
<path d="M0 0 C0.33 0.66 0.66 1.32 1 2 C1.99 2 2.98 2 4 2 C4 3.65 4 5.3 4 7 C5.32 7.33 6.64 7.66 8 8 C8 8.66 8 9.32 8 10 C7.34 10 6.68 10 6 10 C5.67 11.98 5.34 13.96 5 16 C4.01 16.33 3.02 16.66 2 17 C1.34 15.35 0.68 13.7 0 12 C-1.32 14.64 -2.64 17.28 -4 20 C-5.32 19.67 -6.64 19.34 -8 19 C-8.33 19.66 -8.66 20.32 -9 21 C-9 20.34 -9 19.68 -9 19 C-10.32 19.33 -11.64 19.66 -13 20 C-13.0825 20.763125 -13.165 21.52625 -13.25 22.3125 C-14.14615794 25.52373261 -15.21611025 26.29374499 -18 28 C-17.43675743 22.6449923 -15.58935184 18.54209936 -13.1875 13.8125 C-12.84396484 13.10158203 -12.50042969 12.39066406 -12.14648438 11.65820312 C-10.27113245 7.91805473 -8.77597202 5.10825105 -5 3 C-3.66893378 2.65772583 -2.33599921 2.32248257 -1 2 C-0.67 1.34 -0.34 0.68 0 0 Z " fill="#FC833B" transform="translate(310,17)"/>
<path d="M0 0 C2.3125 -0.25 2.3125 -0.25 5 0 C6.625 2 6.625 2 8 4 C8.99 4 9.98 4 11 4 C11.66 4.33 12.32 4.66 13 5 C12.34 6.98 11.68 8.96 11 11 C11.66 11.33 12.32 11.66 13 12 C11.02 15.96 9.04 19.92 7 24 C5.02 24 3.04 24 1 24 C-1 22 -1 22 -1.23046875 18.76953125 C-1.21628906 17.46371094 -1.20210938 16.15789063 -1.1875 14.8125 C-1.18105469 13.51957031 -1.17460938 12.22664063 -1.16796875 10.89453125 C-1.00728646 7.16894409 -0.59561728 3.67376737 0 0 Z " fill="#FB7A2C" transform="translate(104,35)"/>
<path d="M0 0 C1.2065625 0.0309375 1.2065625 0.0309375 2.4375 0.0625 C4.22289623 5.35640742 4.68807202 9.6946638 4.3125 15.25 C4.27769531 16.29704102 4.27769531 16.29704102 4.2421875 17.36523438 C4.03329298 20.79567407 3.64161231 22.79246322 1.55078125 25.55859375 C-0.5625 27.0625 -0.5625 27.0625 -3.25 26.9375 C-5.5625 26.0625 -5.5625 26.0625 -6.5625 24.0625 C-7.3952025 16.16783978 -5.76252845 8.6201107 -3.5625 1.0625 C-2.5625 0.0625 -2.5625 0.0625 0 0 Z " fill="#FC7727" transform="translate(95.5625,33.9375)"/>
<path d="M0 0 C2.625 -0.1875 2.625 -0.1875 5 0 C6.79816875 5.31119342 7.22571279 9.61697319 6.8125 15.1875 C6.78091797 15.88552734 6.74933594 16.58355469 6.71679688 17.30273438 C6.44695664 21.41290958 5.88172064 23.9940003 3 27 C0.0625 26.625 0.0625 26.625 -3 26 C-6.15175971 19.69648057 -3.59334311 9.55041058 -2 3 C-1.34 2.01 -0.68 1.02 0 0 Z " fill="#FA7A2C" transform="translate(232,34)"/>
<path d="M0 0 C1.96453125 -0.03867187 1.96453125 -0.03867187 3.96875 -0.078125 C7.6036698 0.25963303 9.01049033 0.64223862 11.5 3.25 C12 5.6875 12 5.6875 11.5 8.25 C9.859375 10.39453125 9.859375 10.39453125 7.5 12.25 C4.484375 12.640625 4.484375 12.640625 1.25 12.5 C0.17234375 12.46390625 -0.9053125 12.4278125 -2.015625 12.390625 C-3.24539062 12.32101563 -3.24539062 12.32101563 -4.5 12.25 C-4.5 14.89 -4.5 17.53 -4.5 20.25 C0.12 20.25 4.74 20.25 9.5 20.25 C9.5 20.58 9.5 20.91 9.5 21.25 C4.55 21.25 -0.4 21.25 -5.5 21.25 C-5.5 17.62 -5.5 13.99 -5.5 10.25 C-4.66855469 10.20101563 -3.83710937 10.15203125 -2.98046875 10.1015625 C-1.89378906 10.02679688 -0.80710937 9.95203125 0.3125 9.875 C1.39144531 9.80539063 2.47039062 9.73578125 3.58203125 9.6640625 C6.68626186 9.43804267 6.68626186 9.43804267 9.5 7.25 C9.17 5.93 8.84 4.61 8.5 3.25 C2.23 2.92 -4.04 2.59 -10.5 2.25 C-10.83 3.24 -11.16 4.23 -11.5 5.25 C-12.16 5.25 -12.82 5.25 -13.5 5.25 C-13.17 6.24 -12.84 7.23 -12.5 8.25 C-12.3460737 11.05160502 -12.24261955 13.83298425 -12.18359375 16.63671875 C-12.16281265 17.45372757 -12.14203156 18.27073639 -12.12062073 19.11250305 C-12.05526921 21.72075034 -11.99630727 24.32909775 -11.9375 26.9375 C-11.89430108 28.70639054 -11.85068635 30.47527097 -11.80664062 32.24414062 C-11.69960257 36.57932463 -11.59829456 40.91460929 -11.5 45.25 C-10.18 45.25 -8.86 45.25 -7.5 45.25 C-6.84 44.59 -6.18 43.93 -5.5 43.25 C-5.8125 45.1875 -5.8125 45.1875 -6.5 47.25 C-9.5 48.25 -9.5 48.25 -11.625 47.5 C-13.5 46.25 -13.5 46.25 -14.5 43.25 C-14.62124154 40.33579434 -14.68816644 37.44625534 -14.703125 34.53125 C-14.70882507 33.67696411 -14.71452515 32.82267822 -14.72039795 31.94250488 C-14.72983911 30.13697547 -14.73637842 28.33142889 -14.74023438 26.52587891 C-14.74996328 23.76043894 -14.78100382 20.99573504 -14.8125 18.23046875 C-14.81902797 16.47656692 -14.82427925 14.72265977 -14.828125 12.96875 C-14.8404718 12.14056763 -14.8528186 11.31238525 -14.86553955 10.45910645 C-14.84297195 4.66211081 -14.84297195 4.66211081 -13.08514404 2.54992676 C-9.35160377 -0.51183216 -4.62689556 0.05464837 0 0 Z " fill="#FBD9C4" transform="translate(73.5,16.75)"/>
<path d="M0 0 C2.29013653 3.4352048 2.17842973 4.985331 2 9 C-1.69541586 9.95024979 -4.30458414 9.95024979 -8 9 C-10.12508244 12.18762365 -10.5020163 14.26512223 -11 18 C-11.66 17.67 -12.32 17.34 -13 17 C-13 15.35 -13 13.7 -13 12 C-13.66 11.67 -14.32 11.34 -15 11 C-13.80100302 7.9168649 -12.52299523 4.93720508 -11 2 C-11.99 2 -12.98 2 -14 2 C-13.67 2.99 -13.34 3.98 -13 5 C-16.75 8 -16.75 8 -19 8 C-17.60678155 3.12373543 -15.06141704 0.92422027 -11 -2 C-6.94674458 -4.0920028 -3.80367184 -1.97227429 0 0 Z " fill="#FB8943" transform="translate(221,32)"/>
<path d="M0 0 C4.29 0 8.58 0 13 0 C12.43944206 6.23022317 11.38857494 11.95469042 9.671875 17.9609375 C9.44099182 18.79098297 9.21010864 19.62102844 8.972229 20.47622681 C8.2380132 23.11102904 7.49442911 25.74306725 6.75 28.375 C5.78404954 31.81964025 4.82177838 35.26530484 3.859375 38.7109375 C3.62287231 39.55485046 3.38636963 40.39876343 3.1427002 41.26824951 C0.66047579 50.15225652 -1.68013023 59.07243984 -4 68 C-4.66 68 -5.32 68 -6 68 C-5.41538903 62.53754125 -4.45561627 57.36428615 -3 52.0625 C-2.68712036 50.90016846 -2.68712036 50.90016846 -2.36791992 49.71435547 C-1.87851954 47.90116718 -1.38634926 46.08872526 -0.89208984 44.27685547 C-0.03393497 41.1246511 0.8163511 37.97043269 1.6647644 34.81559753 C2.46749851 31.83309622 3.27351008 28.85148711 4.08032227 25.87008667 C4.48344392 24.37951314 4.88579423 22.88873078 5.28735352 21.3977356 C5.8591128 19.27734322 6.43490239 17.158084 7.01171875 15.0390625 C7.34647217 13.80365723 7.68122559 12.56825195 8.02612305 11.29541016 C8.87011438 8.43950768 9.83602871 5.73810698 11 3 C8.03 3 5.06 3 2 3 C1.34 4.32 0.68 5.64 0 7 C0 4.69 0 2.38 0 0 Z " fill="#969696" transform="translate(411,5)"/>
<path d="M0 0 C6.811541 6.63688611 11.74784893 16.12354062 15 25 C15 25.66 15 26.32 15 27 C14.34 27 13.68 27 13 27 C13 26.34 13 25.68 13 25 C12.360625 24.773125 11.72125 24.54625 11.0625 24.3125 C9 23 9 23 8.25 20.375 C8.1675 19.59125 8.085 18.8075 8 18 C7.34 18 6.68 18 6 18 C5.34 18.99 4.68 19.98 4 21 C3.34 21 2.68 21 2 21 C2 21.99 2 22.98 2 24 C-1.3 24 -4.6 24 -8 24 C-7.33501617 19.61110675 -5.81242323 16.0188515 -4 12 C-3.34 12.33 -2.68 12.66 -2 13 C-1.375 15.5625 -1.375 15.5625 -1 18 C1.35785318 17.10664203 1.35785318 17.10664203 2.125 13.9375 C2.558125 12.4834375 2.558125 12.4834375 3 11 C3.66 11 4.32 11 5 11 C5 10.34 5 9.68 5 9 C4.0409375 8.8453125 4.0409375 8.8453125 3.0625 8.6875 C2.0415625 8.3471875 2.0415625 8.3471875 1 8 C0.67 7.01 0.34 6.02 0 5 C0.33 4.34 0.66 3.68 1 3 C-0.32 2.67 -1.64 2.34 -3 2 C-3 2.66 -3 3.32 -3 4 C-4.423125 4.4640625 -4.423125 4.4640625 -5.875 4.9375 C-8.86080408 5.87394742 -8.86080408 5.87394742 -11 7 C-8.92440814 1.98398634 -5.67371849 -1.2454504 0 0 Z M-4 16 C-5.4606285 18.64738916 -6 19.89448334 -6 23 C-4.02 23 -2.04 23 0 23 C-0.60183749 20.97954558 -1.27306096 18.97888961 -2 17 C-2.66 16.67 -3.32 16.34 -4 16 Z " fill="#F99457" transform="translate(313,16)"/>
<path d="M0 0 C2.81256281 -0.02684312 5.62487241 -0.04676188 8.4375 -0.0625 C9.23994141 -0.07087891 10.04238281 -0.07925781 10.86914062 -0.08789062 C12.91295221 -0.0965143 14.95683902 -0.0522815 17 0 C18 1 18 1 18.3125 4.375 C18 8 18 8 16.37109375 9.68359375 C13.40859641 11.32834104 11.1214275 11.50427024 7.75 11.6875 C6.67234375 11.75324219 5.5946875 11.81898437 4.484375 11.88671875 C3.25460938 11.94279297 3.25460938 11.94279297 2 12 C1.67 15.3 1.34 18.6 1 22 C0.67 22 0.34 22 0 22 C0 18.04 0 14.08 0 10 C0.99 9.67 1.98 9.34 3 9 C3.3721042 7.67696283 3.70630173 6.34262065 4 5 C4.66 4.67 5.32 4.34 6 4 C6.33 3.01 6.66 2.02 7 1 C4.69 1 2.38 1 0 1 C0 0.67 0 0.34 0 0 Z " fill="#FA7B2D" transform="translate(68,38)"/>
<path d="M0 0 C0.33 0 0.66 0 1 0 C1 7.26 1 14.52 1 22 C3.31 22.66 5.62 23.32 8 24 C8.15855469 23.43152344 8.31710938 22.86304687 8.48046875 22.27734375 C10.18134308 16.6484834 12.36375392 12.61901529 16 8 C16.66 8.33 17.32 8.66 18 9 C18.59765625 11.43359375 18.59765625 11.43359375 19.0625 14.4375 C19.62385918 18.34893189 19.62385918 18.34893189 21 22 C22.65 21.67 24.3 21.34 26 21 C26.33 16.71 26.66 12.42 27 8 C26.34 8 25.68 8 25 8 C25 6.35 25 4.7 25 3 C27 4 27 4 28.125 6.4375 C29.38852945 11.58186991 30.08289277 17.20008807 28.1328125 22.2421875 C27 24 27 24 24.625 25 C22 25 22 25 19.75 23.625 C17.27704133 19.915562 17.18713276 16.37890652 17 12 C12.4434473 15.71274665 10.42599607 20.79007402 8 26 C4.625 26.1875 4.625 26.1875 1 26 C-1.03094922 22.95357617 -1.25035189 22.36443332 -1.23046875 18.9453125 C-1.22853516 18.16542969 -1.22660156 17.38554688 -1.22460938 16.58203125 C-1.21236328 15.77121094 -1.20011719 14.96039063 -1.1875 14.125 C-1.18685547 13.32191406 -1.18621094 12.51882812 -1.18554688 11.69140625 C-1.15573748 7.67045051 -0.99256835 3.92263011 0 0 Z " fill="#F9DCCA" transform="translate(103,35)"/>
<path d="M0 0 C2.29327525 1.44785148 3.34437719 2.79250293 5 5 C4.67 5.66 4.34 6.32 4 7 C2.0625 6.25 2.0625 6.25 0 5 C-0.75 2.875 -0.75 2.875 -1 1 C-2.09506492 4.28519475 -2.09960608 6.73663415 -2.0625 10.1875 C-2.05347656 11.27417969 -2.04445313 12.36085938 -2.03515625 13.48046875 C-2.02355469 14.31191406 -2.01195312 15.14335938 -2 16 C-4.95664519 17.4783226 -7.74229737 17.06032783 -11 17 C-12.0013988 13.99580359 -12.51421457 11.12290635 -13 8 C-12.34 8 -11.68 8 -11 8 C-11 7.01 -11 6.02 -11 5 C-10.360625 4.87625 -9.72125 4.7525 -9.0625 4.625 C-8.381875 4.41875 -7.70125 4.2125 -7 4 C-6.67 3.34 -6.34 2.68 -6 2 C-6.99 1.67 -7.98 1.34 -9 1 C-9.33 1.66 -9.66 2.32 -10 3 C-10.66 2.34 -11.32 1.68 -12 1 C-8.29012673 -0.85493664 -4.03860349 -0.59596347 0 0 Z M-7 10 C-9.34287418 12.67247634 -9.34287418 12.67247634 -10 16 C-8.02 16 -6.04 16 -4 16 C-3.67 14.35 -3.34 12.7 -3 11 C-4.32 10.67 -5.64 10.34 -7 10 Z " fill="#FC7E33" transform="translate(387,34)"/>
<path d="M0 0 C-0.99 0.495 -0.99 0.495 -2 1 C-2.33 1.99 -2.66 2.98 -3 4 C-4.32 4 -5.64 4 -7 4 C-7 4.99 -7 5.98 -7 7 C-7.66 7 -8.32 7 -9 7 C-8.01 8.485 -8.01 8.485 -7 10 C-6.875 13.1875 -6.875 13.1875 -7 16 C-9.31 17.32 -11.62 18.64 -14 20 C-15 19 -15 19 -15.09765625 16.71484375 C-15.08605469 15.79832031 -15.07445312 14.88179687 -15.0625 13.9375 C-15.05347656 13.01839844 -15.04445313 12.09929688 -15.03515625 11.15234375 C-15.02355469 10.44207031 -15.01195312 9.73179688 -15 9 C-14.34 9 -13.68 9 -13 9 C-13.33 7.35 -13.66 5.7 -14 4 C-12.33333333 4 -10.66666667 4 -9 4 C-8.67 3.01 -8.34 2.02 -8 1 C-5.07175348 0.02391783 -3.04386724 -0.08226668 0 0 Z " fill="#FD7728" transform="translate(383,35)"/>
<path d="M0 0 C2.96355718 0.40227533 3.88989772 0.59352302 6.1796875 2.625 C7.32421875 4.8125 7.32421875 4.8125 8.19140625 7.03125 C8.50335938 7.6190625 8.8153125 8.206875 9.13671875 8.8125 C12.84928328 9.48173762 12.84928328 9.48173762 16.13671875 8.8125 C15.80671875 9.8025 15.47671875 10.7925 15.13671875 11.8125 C9.64891387 12.17835366 9.64891387 12.17835366 7.38671875 10.5625 C6.13671875 8.8125 6.13671875 8.8125 5.32421875 6.6875 C4.26284129 4.56219592 4.26284129 4.56219592 1.69921875 4.0625 C0.52359375 3.98 -0.65203125 3.8975 -1.86328125 3.8125 C-2.73082031 3.70292969 -3.59835937 3.59335937 -4.4921875 3.48046875 C-7.480712 3.24057359 -9.92625451 3.18500467 -12.86328125 3.8125 C-15.53080739 6.13750333 -17.16001297 8.73751565 -18.86328125 11.8125 C-19.86328125 12.8125 -19.86328125 12.8125 -22.30078125 13.0625 C-23.14640625 12.98 -23.99203125 12.8975 -24.86328125 12.8125 C-26.86328125 9.8125 -26.86328125 9.8125 -26.48828125 6.625 C-26.28203125 5.696875 -26.07578125 4.76875 -25.86328125 3.8125 C-25.53328125 3.8125 -25.20328125 3.8125 -24.86328125 3.8125 C-24.53328125 5.7925 -24.20328125 7.7725 -23.86328125 9.8125 C-21.52179894 9.93463894 -21.52179894 9.93463894 -18.86328125 8.8125 C-18.273012 7.47020502 -17.71455813 6.11377897 -17.17578125 4.75 C-13.72710865 -1.46210406 -6.26505567 -0.4107918 0 0 Z " fill="#FCEEE5" transform="translate(313.86328125,49.1875)"/>
<path d="M0 0 C0.33 0 0.66 0 1 0 C2.75314613 11.87070029 2.75314613 11.87070029 -1 17 C-5.10971295 21.47233468 -9.22341928 21.74829714 -15 22 C-14.97679687 22.74765625 -14.95359375 23.4953125 -14.9296875 24.265625 C-14.90261719 25.74289063 -14.90261719 25.74289063 -14.875 27.25 C-14.85179687 28.22453125 -14.82859375 29.1990625 -14.8046875 30.203125 C-15.00377443 33.05404985 -15.41403057 34.64277147 -17 37 C-19.868554 38.05683569 -21.36314145 38.2299767 -24.25 37.1875 C-26 36 -26 36 -27 34 C-27.08449628 32.2595583 -27.10723024 30.51590278 -27.09765625 28.7734375 C-27.09443359 27.7421875 -27.09121094 26.7109375 -27.08789062 25.6484375 C-27.07951172 24.56820312 -27.07113281 23.48796875 -27.0625 22.375 C-27.05798828 21.28703125 -27.05347656 20.1990625 -27.04882812 19.078125 C-27.03701776 16.38536211 -27.02054778 13.69270812 -27 11 C-26.67 11 -26.34 11 -26 11 C-25.98018066 11.65597168 -25.96036133 12.31194336 -25.93994141 12.98779297 C-25.84487493 15.95061069 -25.73512248 18.91270532 -25.625 21.875 C-25.5940625 22.90753906 -25.563125 23.94007812 -25.53125 25.00390625 C-25.47324219 26.48310547 -25.47324219 26.48310547 -25.4140625 27.9921875 C-25.3826416 28.90339355 -25.3512207 29.81459961 -25.31884766 30.75341797 C-25.20117489 33.19931186 -25.20117489 33.19931186 -23 35 C-21.68 35 -20.36 35 -19 35 C-17.08697693 31.73386305 -16.64325339 29.00554752 -16.375 25.25 C-16.30023438 24.26515625 -16.22546875 23.2803125 -16.1484375 22.265625 C-16.07496094 21.14414062 -16.07496094 21.14414062 -16 20 C-15.33613281 19.91363281 -14.67226563 19.82726562 -13.98828125 19.73828125 C-9.83205128 19.07692495 -6.5840766 18.34567799 -2.9375 16.1875 C0.12589838 11.14771557 -0.0933383 5.79546016 0 0 Z " fill="#FCEEE6" transform="translate(361,41)"/>
<path d="M0 0 C0.99 0.33 1.98 0.66 3 1 C5.28959343 7.94415784 6.82730878 15.69210581 6 23 C4.875 25.0625 4.875 25.0625 3 26 C-0.23199091 25.73066742 -2.92585714 25.02471429 -6 24 C-8.10046079 24.42817238 -8.10046079 24.42817238 -10.3125 25.125 C-13.76078089 25.94922324 -14.86125472 26.04367907 -18.375 24.9375 C-21.38381846 22.71670542 -22.69911063 21.52005358 -24 18 C-23.93838068 14.9447088 -23.54327236 12.00436161 -23 9 C-22.67 9 -22.34 9 -22 9 C-21.96261719 9.68707031 -21.92523438 10.37414063 -21.88671875 11.08203125 C-21.82097656 11.98308594 -21.75523437 12.88414063 -21.6875 13.8125 C-21.62949219 14.70582031 -21.57148438 15.59914063 -21.51171875 16.51953125 C-20.92472494 19.36488293 -20.31516327 20.29209267 -18 22 C-13.99326888 23.03878214 -11.94059438 23.51305148 -8.25 21.5 C-7.5075 21.005 -6.765 20.51 -6 20 C-5.01 20.33 -4.02 20.66 -3 21 C-3 21.66 -3 22.32 -3 23 C-1.00045254 23.04254356 1.00041636 23.04080783 3 23 C4.26221698 21.95420381 4.26221698 21.95420381 4.1875 19.625 C4.20048548 16.76555137 4.20048548 16.76555137 2 14 C1.875 11.9140625 1.875 11.9140625 2 9.625 C2.09620711 5.93906495 1.72235664 3.33706599 0 0 Z " fill="#FBEBE2" transform="translate(158,34)"/>
<path d="M0 0 C8.02770189 0.55363461 15.33854067 2.65687944 23 5 C23 5.66 23 6.32 23 7 C17.98942604 6.48166476 13.78801821 5.59600607 9 4 C6.24934768 3.83142517 6.24934768 3.83142517 4 4 C3.67 6.31 3.34 8.62 3 11 C3.77085937 11.12117188 4.54171875 11.24234375 5.3359375 11.3671875 C6.84027344 11.61855469 6.84027344 11.61855469 8.375 11.875 C9.37273437 12.03742187 10.37046875 12.19984375 11.3984375 12.3671875 C14 13 14 13 16 15 C14.27014758 14.88487847 12.54111249 14.75744323 10.8125 14.625 C9.36810547 14.52058594 9.36810547 14.52058594 7.89453125 14.4140625 C5 14 5 14 0 12 C0 8.04 0 4.08 0 0 Z " fill="#A4A4A4" transform="translate(423,27)"/>
<path d="M0 0 C4.29 0 8.58 0 13 0 C12 2 11 4 10 6 C9.731875 6.7115625 9.46375 7.423125 9.1875 8.15625 C8 10 8 10 5.8359375 10.609375 C5.02382813 10.65578125 4.21171875 10.7021875 3.375 10.75 C2.55773437 10.80671875 1.74046875 10.8634375 0.8984375 10.921875 C0.27195312 10.94765625 -0.35453125 10.9734375 -1 11 C-1 8.36 -1 5.72 -1 3 C-0.34 2.67 0.32 2.34 1 2 C0.67 1.34 0.34 0.68 0 0 Z " fill="#C5C5C5" transform="translate(427,48)"/>
<path d="M0 0 C2.33944736 0.28730055 4.6739143 0.61936779 7 1 C7.05389087 2.95803507 7.09274217 4.91648909 7.125 6.875 C7.14820313 7.96554688 7.17140625 9.05609375 7.1953125 10.1796875 C7 13 7 13 5 15 C2.4375 14.75 2.4375 14.75 0 14 C-1.31164842 11.37670316 -1.13262846 9.36301375 -1.125 6.4375 C-1.12757812 5.44621094 -1.13015625 4.45492187 -1.1328125 3.43359375 C-1 1 -1 1 0 0 Z " fill="#FB7929" transform="translate(123,43)"/>
<path d="M0 0 C0.84191782 2.9248633 1.11819313 5.50741656 1.09765625 8.546875 C1.09443359 9.39121094 1.09121094 10.23554687 1.08789062 11.10546875 C1.07951172 11.97816406 1.07113281 12.85085937 1.0625 13.75 C1.05798828 14.63816406 1.05347656 15.52632812 1.04882812 16.44140625 C1.037074 18.62767329 1.02064249 20.81380179 1 23 C2.98 23 4.96 23 7 23 C7.30292969 22.33613281 7.60585937 21.67226563 7.91796875 20.98828125 C10.39199746 15.77378998 12.60453197 11.76754403 17 8 C18.485 14.435 18.485 14.435 20 21 C21.65 21.33 23.3 21.66 25 22 C25.99 21.34 26.98 20.68 28 20 C27.67 21.32 27.34 22.64 27 24 C20.58131488 24.48442907 20.58131488 24.48442907 18.125 22.4375 C16.68620834 19.32011808 16.32703401 16.4011537 16 13 C13.40345761 15.29324257 12.22402063 17.42692848 10.9375 20.625 C9.21884498 24.89057751 9.21884498 24.89057751 7 26 C4 26.1875 4 26.1875 1 26 C-1 24 -1 24 -1.24291992 21.89282227 C-1.23881104 21.04260498 -1.23470215 20.1923877 -1.23046875 19.31640625 C-1.22853516 18.38892578 -1.22660156 17.46144531 -1.22460938 16.50585938 C-1.21236328 15.53455078 -1.20011719 14.56324219 -1.1875 13.5625 C-1.18685547 12.59505859 -1.18621094 11.62761719 -1.18554688 10.63085938 C-1.14052002 3.42156007 -1.14052002 3.42156007 0 0 Z " fill="#FBE8DE" transform="translate(168,35)"/>
<path d="M0 0 C1.2065625 0.0309375 1.2065625 0.0309375 2.4375 0.0625 C2.1075 0.7225 1.7775 1.3825 1.4375 2.0625 C0.7775 2.0625 0.1175 2.0625 -0.5625 2.0625 C-0.5625 4.7025 -0.5625 7.3425 -0.5625 10.0625 C1.95871432 9.43900642 4.47946931 8.81374639 7 8.1875 C7.70447266 8.01347656 8.40894531 7.83945312 9.13476562 7.66015625 C9.83408203 7.48613281 10.53339844 7.31210937 11.25390625 7.1328125 C12.30408936 6.87226074 12.30408936 6.87226074 13.37548828 6.60644531 C15.33926788 6.088413 17.27852152 5.47992235 19.21484375 4.8671875 C22.39767341 4.07244458 23.4433007 4.14639776 26.4375 5.0625 C20.75290669 7.27533826 15.06635106 9.12841691 9.1875 10.75 C8.00414062 11.08741211 8.00414062 11.08741211 6.796875 11.43164062 C5.6521875 11.7497168 5.6521875 11.7497168 4.484375 12.07421875 C3.80213867 12.26459717 3.11990234 12.45497559 2.41699219 12.65112305 C0.4375 13.0625 0.4375 13.0625 -3.5625 13.0625 C-3.58936553 11.08340602 -3.60883375 9.10421029 -3.625 7.125 C-3.63660156 6.02285156 -3.64820313 4.92070313 -3.66015625 3.78515625 C-3.52747618 0.086036 -3.52747618 0.086036 0 0 Z " fill="#A2A2A2" transform="translate(426.5625,48.9375)"/>
<path d="M0 0 C2.625 -0.1875 2.625 -0.1875 5 0 C6.79816875 5.31119342 7.22571279 9.61697319 6.8125 15.1875 C6.78091797 15.88552734 6.74933594 16.58355469 6.71679688 17.30273438 C6.44695664 21.41290958 5.88172064 23.9940003 3 27 C0.0625 26.625 0.0625 26.625 -3 26 C-6.15175971 19.69648057 -3.59334311 9.55041058 -2 3 C-1.34 2.01 -0.68 1.02 0 0 Z M0 3 C-2.35582065 7.62816733 -2.23521469 11.75534135 -2.125 16.8125 C-2.11597656 17.60076172 -2.10695312 18.38902344 -2.09765625 19.20117188 C-2.07422504 21.13424666 -2.03835838 23.0671638 -2 25 C0.41619823 25.25030977 0.41619823 25.25030977 3 25 C5.06723714 21.89914429 5.24497423 21.27068319 5.1953125 17.76953125 C5.18886719 16.96708984 5.18242187 16.16464844 5.17578125 15.33789062 C5.15902344 14.50451172 5.14226562 13.67113281 5.125 12.8125 C5.11146484 11.5450293 5.11146484 11.5450293 5.09765625 10.25195312 C5.07410703 8.16784757 5.03823647 6.08388783 5 4 C3.35 3.67 1.7 3.34 0 3 Z " fill="#F7DBCB" transform="translate(232,34)"/>
<path d="M0 0 C0.33 0.66 0.66 1.32 1 2 C1.99 2 2.98 2 4 2 C4 3.65 4 5.3 4 7 C5.32 7.33 6.64 7.66 8 8 C8 8.66 8 9.32 8 10 C7.34 10 6.68 10 6 10 C5.67 11.98 5.34 13.96 5 16 C4.01 16.33 3.02 16.66 2 17 C0.64560332 14.29120665 0.93498549 11.99066732 1 9 C0.34 9 -0.32 9 -1 9 C-1 8.34 -1 7.68 -1 7 C-1.66 7 -2.32 7 -3 7 C-3.66 5.68 -4.32 4.36 -5 3 C-4.360625 2.87625 -3.72125 2.7525 -3.0625 2.625 C-2.0415625 2.315625 -2.0415625 2.315625 -1 2 C-0.67 1.34 -0.34 0.68 0 0 Z " fill="#FC7829" transform="translate(310,17)"/>
<path d="M0 0 C7.0812675 -0.65872256 13.38558686 1.61305961 20 4 C21 5 21 5 21.09765625 7.50390625 C21.08605469 8.51324219 21.07445312 9.52257812 21.0625 10.5625 C21.05347656 11.57441406 21.04445313 12.58632813 21.03515625 13.62890625 C21.02355469 14.41136719 21.01195312 15.19382812 21 16 C16.07015675 18.03993514 12.42039575 19.40652968 7 19 C9.85478326 17.09681116 11.41941308 16.5380901 14.6875 15.875 C16.110625 15.58625 17.53375 15.2975 19 15 C19 12.03 19 9.06 19 6 C18.38253906 5.89042969 17.76507813 5.78085937 17.12890625 5.66796875 C11.22287499 4.5622734 5.64802441 3.04638565 0 1 C0 0.67 0 0.34 0 0 Z " fill="#909090" transform="translate(447,34)"/>
<path d="M0 0 C0.33 0.99 0.66 1.98 1 3 C0.2884375 3.61875 0.2884375 3.61875 -0.4375 4.25 C-2.17203947 6.19268421 -2.65877936 7.44084519 -3 10 C-2.67 10.33 -2.34 10.66 -2 11 C-1.95936168 12.66617115 -1.957279 14.33388095 -2 16 C-2.66 16.33 -3.32 16.66 -4 17 C-4.66 16.67 -5.32 16.34 -6 16 C-6 16.99 -6 17.98 -6 19 C-6.99 19.33 -7.98 19.66 -9 20 C-9.02696365 18.20841511 -9.04637917 16.41671527 -9.0625 14.625 C-9.07410156 13.62726562 -9.08570313 12.62953125 -9.09765625 11.6015625 C-9 9 -9 9 -8 7 C-7.34 7 -6.68 7 -6 7 C-5.67 6.34 -5.34 5.68 -5 5 C-4.34 4.34 -3.68 3.68 -3 3 C-3 2.34 -3 1.68 -3 1 C-2.01 0.67 -1.02 0.34 0 0 Z " fill="#FB7828" transform="translate(210,33)"/>
<path d="M0 0 C2.625 -0.1875 2.625 -0.1875 5 0 C6.78539623 5.29390742 7.25057202 9.6321638 6.875 15.1875 C6.84019531 16.23454102 6.84019531 16.23454102 6.8046875 17.30273438 C6.59579298 20.73317407 6.20411231 22.72996322 4.11328125 25.49609375 C2 27 2 27 -0.6875 26.875 C-3 26 -3 26 -4 24 C-4.06996014 22.29297265 -4.08440154 20.58331997 -4.0625 18.875 C-4.05347656 17.96492188 -4.04445313 17.05484375 -4.03515625 16.1171875 C-4.02355469 15.41851562 -4.01195313 14.71984375 -4 14 C-3.67 14 -3.34 14 -3 14 C-2.67 16.97 -2.34 19.94 -2 23 C-0.35 23.33 1.3 23.66 3 24 C4.17469444 21.65061112 4.20034889 20.04926795 4.31640625 17.4296875 C4.35830078 16.53378906 4.40019531 15.63789062 4.44335938 14.71484375 C4.50233398 13.30912109 4.50233398 13.30912109 4.5625 11.875 C4.60568359 10.93011719 4.64886719 9.98523437 4.69335938 9.01171875 C4.79959072 6.67462908 4.90163176 4.3374317 5 2 C3.68 2 2.36 2 1 2 C-0.485 7.445 -0.485 7.445 -2 13 C-2.33 13 -2.66 13 -3 13 C-2.88557539 11.39504433 -2.75805306 9.79101881 -2.625 8.1875 C-2.55539063 7.29417969 -2.48578125 6.40085937 -2.4140625 5.48046875 C-2 3 -2 3 0 0 Z " fill="#FAE5D9" transform="translate(93,34)"/>
<path d="M0 0 C3.11257569 0 5.10765685 0.17361624 8 1 C8.95024979 4.69541586 8.95024979 7.30458414 8 11 C7.34 11 6.68 11 6 11 C6 11.66 6 12.32 6 13 C4.35 13 2.7 13 1 13 C1.020625 11.783125 1.04125 10.56625 1.0625 9.3125 C1.06824116 6.08022678 0.78766315 3.15065259 0 0 Z " fill="#FC7725" transform="translate(186,43)"/>
<path d="M0 0 C1.30514155 2.61028309 0.95798659 4.40670021 0.8125 7.3125 C0.81708496 10.80624078 0.96091139 12.90032405 2.25 16.1875 C6.75565385 19.15713549 11.77156081 18.82445822 17 18 C20.47948732 16.30220761 21.82515423 15.26226865 24 12 C23.875 14.8125 23.875 14.8125 23 18 C18.51626013 21.63546476 13.33731271 21.55947491 7.78515625 21.421875 C5 21 5 21 1.875 18.75 C1.25625 17.8425 0.6375 16.935 0 16 C-0.433125 15.38125 -0.86625 14.7625 -1.3125 14.125 C-2.93093856 9.12255354 -2.25608972 4.65318504 0 0 Z " fill="#FBE7DA" transform="translate(201,40)"/>
<path d="M0 0 C0.66 0 1.32 0 2 0 C1.835 0.61875 1.67 1.2375 1.5 1.875 C0.92365356 3.96063386 0.92365356 3.96063386 1 6 C0.34 6 -0.32 6 -1 6 C-1 6.99 -1 7.98 -1 9 C1.16874252 8.49396008 2.99967627 8.00016187 5 7 C5.25 12.625 5.25 12.625 3 16 C-1.875 15.125 -1.875 15.125 -3 14 C-3.09854655 12.35659133 -3.12972411 10.7088539 -3.125 9.0625 C-3.12757812 8.16660156 -3.13015625 7.27070312 -3.1328125 6.34765625 C-3 4 -3 4 -2 2 C-1.34 2 -0.68 2 0 2 C0 1.34 0 0.68 0 0 Z " fill="#FA7D34" transform="translate(93,43)"/>
<path d="M0 0 C5.65394631 -0.34615998 9.03006806 0.56574762 14 3 C14 6.96 14 10.92 14 15 C8.86496656 14.35812082 4.0056546 13.31727753 -1 12 C-1 11.34 -1 10.68 -1 10 C0.79232337 10.30871122 2.58384321 10.62209064 4.375 10.9375 C5.37273438 11.11152344 6.37046875 11.28554688 7.3984375 11.46484375 C10 12 10 12 12 13 C12 10.03 12 7.06 12 4 C11.30132812 3.87882812 10.60265625 3.75765625 9.8828125 3.6328125 C8.97273438 3.46523438 8.06265625 3.29765625 7.125 3.125 C5.76761719 2.88136719 5.76761719 2.88136719 4.3828125 2.6328125 C2 2 2 2 0 0 Z " fill="#9A9A9B" transform="translate(36,47)"/>
<path d="M0 0 C0.33 0 0.66 0 1 0 C1.2475 1.258125 1.495 2.51625 1.75 3.8125 C2.44246837 6.50596317 2.90174469 7.87991017 4.6875 10.0625 C9.76120515 12.1194075 15.09906545 9.79302483 20 8 C20.99 9.485 20.99 9.485 22 11 C24.58380177 11.25030977 24.58380177 11.25030977 27 11 C27.66 9.02 28.32 7.04 29 5 C29.33 5 29.66 5 30 5 C29.25 11.75 29.25 11.75 27 14 C23.46782421 13.67889311 20.36550494 13.12183498 17 12 C15.741875 12.37125 14.48375 12.7425 13.1875 13.125 C9.88581942 14.02325133 9.10883058 14.03696133 5.6875 12.875 C3.00087198 11.00060836 1.4598105 9.91962101 0 7 C-0.1875 3.25 -0.1875 3.25 0 0 Z " fill="#FDF3ED" transform="translate(241,46)"/>
<path d="M0 0 C2.875 -0.125 2.875 -0.125 6 0 C6.66 0.66 7.32 1.32 8 2 C7.77256695 4.95662966 7.38764062 6.55033688 5.4375 8.8125 C4.963125 9.204375 4.48875 9.59625 4 10 C0.125 8.125 0.125 8.125 -1 7 C-0.71269945 4.66055264 -0.38063221 2.3260857 0 0 Z " fill="#F79A60" transform="translate(230,22)"/>
<path d="M0 0 C2.5 0.25 2.5 0.25 4.5 2.25 C4.4375 5.25 4.4375 5.25 3.5 8.25 C0.9375 9.625 0.9375 9.625 -1.5 10.25 C-3.78773145 8.43887927 -4.45209822 7.64279457 -4.8125 4.6875 C-4.37135174 1.24654355 -3.4515212 0.34515212 0 0 Z " fill="#F88844" transform="translate(94.5,21.75)"/>
<path d="M0 0 C0.33 0 0.66 0 1 0 C0.37933063 6.06721748 -0.83696842 11.74549625 -2.4375 17.625 C-2.65470703 18.44484375 -2.87191406 19.2646875 -3.09570312 20.109375 C-4.26012284 24.45933934 -5.51950272 28.74443109 -7 33 C-7.33 33 -7.66 33 -8 33 C-7.52429976 25.52104902 -6.04649954 18.63403495 -4 11.4375 C-3.72671875 10.44169922 -3.4534375 9.44589844 -3.171875 8.41992188 C-1.14613884 1.14613884 -1.14613884 1.14613884 0 0 Z " fill="#969595" transform="translate(410,13)"/>
<path d="M0 0 C0.99 0.66 1.98 1.32 3 2 C3.4375 4.375 3.4375 4.375 3 7 C1.36328125 9.1484375 1.36328125 9.1484375 -1 11 C-4.015625 11.390625 -4.015625 11.390625 -7.25 11.25 C-8.32765625 11.21390625 -9.4053125 11.1778125 -10.515625 11.140625 C-11.74539062 11.07101563 -11.74539062 11.07101563 -13 11 C-13 13.64 -13 16.28 -13 19 C-8.38 19 -3.76 19 1 19 C1 19.33 1 19.66 1 20 C-3.95 20 -8.9 20 -14 20 C-14 16.37 -14 12.74 -14 9 C-13.16855469 8.95101563 -12.33710937 8.90203125 -11.48046875 8.8515625 C-10.39378906 8.77679688 -9.30710937 8.70203125 -8.1875 8.625 C-7.10855469 8.55539063 -6.02960938 8.48578125 -4.91796875 8.4140625 C-1.81373814 8.18804267 -1.81373814 8.18804267 1 6 C0.67 4.02 0.34 2.04 0 0 Z " fill="#FBEDE5" transform="translate(82,18)"/>
<path d="M0 0 C0.66 0 1.32 0 2 0 C1.61819237 4.43097807 1.13856597 8.53041534 -0.125 12.8125 C-1.26811758 15.83480826 -1.26811758 15.83480826 -0.3125 18.125 C-0.209375 18.74375 -0.10625 19.3625 0 20 C-2.4375 22.75 -2.4375 22.75 -5 25 C-5.31747363 19.08705358 -4.18406936 14.21095967 -2.5 8.5625 C-2.26152344 7.73556641 -2.02304687 6.90863281 -1.77734375 6.05664062 C-1.193157 4.03535448 -0.59772561 2.01732395 0 0 Z " fill="#969594" transform="translate(400,47)"/>
<path d="M0 0 C4.63355336 4.23119999 6.15818725 9.6975459 6.4375 15.8125 C6.32279226 18.83139911 6.23641393 19.70229357 4.3125 22.125 C1.46377442 23.20289616 -0.12342252 22.87895423 -3 22 C-1.68 21.67 -0.36 21.34 1 21 C1 19.68 1 18.36 1 17 C1.66 17 2.32 17 3 17 C3 13.37 3 9.74 3 6 C2.01 5.67 1.02 5.34 0 5 C0 3.35 0 1.7 0 0 Z " fill="#F9A675" transform="translate(191,35)"/>
<path d="M0 0 C0.99 0.33 1.98 0.66 3 1 C3.25 4.3125 3.25 4.3125 3 8 C-0.08699749 11.20572816 -2.92395659 11.45238894 -7.25 11.6875 C-8.32765625 11.75324219 -9.4053125 11.81898437 -10.515625 11.88671875 C-11.74539062 11.94279297 -11.74539062 11.94279297 -13 12 C-13.33 15.3 -13.66 18.6 -14 22 C-14.33 22 -14.66 22 -15 22 C-15.02686553 20.02090602 -15.04633375 18.04171029 -15.0625 16.0625 C-15.07410156 14.96035156 -15.08570312 13.85820313 -15.09765625 12.72265625 C-15 10 -15 10 -14 9 C-10.37827258 8.67404453 -6.7554479 8.48619464 -3.125 8.28125 C-0.1350199 8.34864552 -0.1350199 8.34864552 1 7 C1.19149081 3.36805359 1.19149081 3.36805359 0 0 Z " fill="#FAE1D2" transform="translate(83,38)"/>
<path d="M0 0 C2.84539129 4.26808693 2.61625375 7.99196323 2 13 C0.07121678 17.24332309 -1.31241965 18.63745764 -5.4375 20.8125 C-8.31426159 21.77142053 -11.00824164 22.54670328 -14 23 C-14.33 25.97 -14.66 28.94 -15 32 C-15.33 32 -15.66 32 -16 32 C-16 28.04 -16 24.08 -16 20 C-13.52604167 19.51171875 -11.05208333 19.0234375 -8.578125 18.53515625 C-7.30195313 18.27025391 -7.30195313 18.27025391 -6 18 C-4.90945313 17.87431641 -4.90945313 17.87431641 -3.796875 17.74609375 C-1.7766088 17.12166393 -1.7766088 17.12166393 -0.7578125 14.83203125 C0.09113986 11.6594 0.19707987 8.96713395 0.125 5.6875 C0.10695313 4.61886719 0.08890625 3.55023438 0.0703125 2.44921875 C0.04710937 1.64097656 0.02390625 0.83273438 0 0 Z " fill="#FBEAE1" transform="translate(392,41)"/>
<path d="M0 0 C1.32 0 2.64 0 4 0 C4 3.96 4 7.92 4 12 C-2.40385663 14.37562423 -8.18686447 15.58751372 -15 16 C-12.46394931 13.46394931 -10.53123444 13.20749627 -7.0625 12.375 C-6.00160156 12.11460938 -4.94070312 11.85421875 -3.84765625 11.5859375 C-1 11 -1 11 2 11 C2 8.03 2 5.06 2 2 C1.01 1.67 0.02 1.34 -1 1 C-0.67 0.67 -0.34 0.34 0 0 Z " fill="#999999" transform="translate(46,27)"/>
<path d="M0 0 C0 0.33 0 0.66 0 1 C-1.27875 1.2475 -2.5575 1.495 -3.875 1.75 C-7.22370361 2.47116817 -7.22370361 2.47116817 -9.3125 5.0625 C-9.539375 5.701875 -9.76625 6.34125 -10 7 C-10.99 7.33 -11.98 7.66 -13 8 C-13.33 8.99 -13.66 9.98 -14 11 C-14.7425 11.61875 -14.7425 11.61875 -15.5 12.25 C-17.76247456 14.88955365 -17.68138743 17.62270673 -18 21 C-18.33 21 -18.66 21 -19 21 C-19.7903334 14.99095717 -19.52940732 10.94783117 -15.8125 6 C-11.27337 0.46206362 -6.99262066 -0.27422042 0 0 Z " fill="#F6AC80" transform="translate(261,31)"/>
<path d="M0 0 C0.33 0 0.66 0 1 0 C1 7.26 1 14.52 1 22 C3.31 22.66 5.62 23.32 8 24 C8.19335938 23.36191406 8.38671875 22.72382812 8.5859375 22.06640625 C8.84632812 21.24011719 9.10671875 20.41382812 9.375 19.5625 C9.63023438 18.73878906 9.88546875 17.91507813 10.1484375 17.06640625 C11 15 11 15 13 14 C12.54738642 15.43931117 12.08767021 16.87638999 11.625 18.3125 C11.24214844 19.51326172 11.24214844 19.51326172 10.8515625 20.73828125 C10 23 10 23 8 26 C4.5 26.375 4.5 26.375 1 26 C-1.03094922 22.95357617 -1.25035189 22.36443332 -1.23046875 18.9453125 C-1.22853516 18.16542969 -1.22660156 17.38554688 -1.22460938 16.58203125 C-1.21236328 15.77121094 -1.20011719 14.96039063 -1.1875 14.125 C-1.18685547 13.32191406 -1.18621094 12.51882812 -1.18554688 11.69140625 C-1.15573748 7.67045051 -0.99256835 3.92263011 0 0 Z " fill="#FBECE3" transform="translate(103,35)"/>
<path d="M0 0 C4.29 0 8.58 0 13 0 C13.33 1.65 13.66 3.3 14 5 C12.02 6.32 10.04 7.64 8 9 C7.67 8.01 7.34 7.02 7 6 C7.66 5.01 8.32 4.02 9 3 C6.36 3 3.72 3 1 3 C0.67 2.01 0.34 1.02 0 0 Z " fill="#F7975B" transform="translate(210,50)"/>
<path d="M0 0 C0.33 0 0.66 0 1 0 C1 2.66666667 1 5.33333333 1 8 C1.66 8 2.32 8 3 8 C3.33 7.34 3.66 6.68 4 6 C4 6.99 4 7.98 4 9 C4.66 9.66 5.32 10.32 6 11 C5.01 12.32 4.02 13.64 3 15 C1.35 14.67 -0.3 14.34 -2 14 C-2.3690205 4.58997722 -2.3690205 4.58997722 0 0 Z " fill="#F98C48" transform="translate(291,45)"/>
<path d="M0 0 C4.29 0 8.58 0 13 0 C12.67 2.97 12.34 5.94 12 9 C11.34 7.68 10.68 6.36 10 5 C10.33 4.34 10.66 3.68 11 3 C8.03 3 5.06 3 2 3 C1.34 4.32 0.68 5.64 0 7 C0 4.69 0 2.38 0 0 Z " fill="#A0A0A0" transform="translate(411,5)"/>
<path d="M0 0 C4.66265807 0.70229477 9.19528931 1.73394678 13.75 2.9375 C14.42160156 3.10701172 15.09320313 3.27652344 15.78515625 3.45117188 C20.76295706 4.76295706 20.76295706 4.76295706 23 7 C15.89675305 6.40806275 8.72573125 5.45525915 2 3 C1.34 2.01 0.68 1.02 0 0 Z " fill="#979797" transform="translate(11,50)"/>
<path d="M0 0 C1.96794289 2.95191434 2.52003592 4.65492023 3.1875 8.0625 C3.36667969 8.94035156 3.54585938 9.81820312 3.73046875 10.72265625 C4 13 4 13 3 15 C2.34 15 1.68 15 1 15 C0.67 14.01 0.34 13.02 0 12 C-0.99 12 -1.98 12 -3 12 C-3 11.01 -3 10.02 -3 9 C-2.01 8.67 -1.02 8.34 0 8 C0 5.36 0 2.72 0 0 Z " fill="#F9A878" transform="translate(328,43)"/>
<path d="M0 0 C0.09765625 6.15234375 0.09765625 6.15234375 0 8 C-0.33 8.33 -0.66 8.66 -1 9 C-3.69082872 8.82364548 -6.32851446 8.38164079 -9 8 C-9.33 7.01 -9.66 6.02 -10 5 C-7.28518704 -0.42962591 -5.85421974 -1.38652573 0 0 Z M-5 1 C-7.67331713 3.71003293 -7.67331713 3.71003293 -9 7 C-6.69 7 -4.38 7 -2 7 C-1.67 5.35 -1.34 3.7 -1 2 C-2.32 1.67 -3.64 1.34 -5 1 Z " fill="#FBDAC6" transform="translate(354,43)"/>
<path d="M0 0 C2.67710191 1.33855096 2.95129094 2.72058088 4.125 5.4375 C4.47820312 6.24058594 4.83140625 7.04367188 5.1953125 7.87109375 C6 10 6 10 6 12 C2.7 12 -0.6 12 -4 12 C-3.33501617 7.61110675 -1.81242323 4.0188515 0 0 Z M0 4 C-1.4606285 6.64738916 -2 7.89448334 -2 11 C-0.02 11 1.96 11 4 11 C3.39816251 8.97954558 2.72693904 6.97888961 2 5 C1.34 4.67 0.68 4.34 0 4 Z " fill="#FCECE2" transform="translate(309,28)"/>
<path d="M0 0 C1.03253906 0.01353516 1.03253906 0.01353516 2.0859375 0.02734375 C3.76577838 0.05067487 5.44543746 0.08653674 7.125 0.125 C7.455 0.785 7.785 1.445 8.125 2.125 C1.855 2.125 -4.415 2.125 -10.875 2.125 C-11.205 3.115 -11.535 4.105 -11.875 5.125 C-12.535 5.125 -13.195 5.125 -13.875 5.125 C-13.875 4.135 -13.875 3.145 -13.875 2.125 C-9.17038677 0.26367327 -4.9992304 -0.1259496 0 0 Z " fill="#F1AE86" transform="translate(73.875,16.875)"/>
<path d="M0 0 C0.33 0 0.66 0 1 0 C1 1.98 1 3.96 1 6 C-2.69541586 6.95024979 -5.30458414 6.95024979 -9 6 C-11.12508244 9.18762365 -11.5020163 11.26512223 -12 15 C-12.33 15 -12.66 15 -13 15 C-13.602537 8.97463002 -13.602537 8.97463002 -11.88671875 6.19921875 C-10.65378147 4.74400545 -9.33191067 3.36520843 -8 2 C-7.4225 2.309375 -6.845 2.61875 -6.25 2.9375 C-4.15705816 3.92583364 -2.25464725 4.5168613 0 5 C0 3.35 0 1.7 0 0 Z " fill="#FCEEE6" transform="translate(222,35)"/>
<path d="M0 0 C-1.94714209 0.73857114 -3.89507461 1.47515069 -5.84765625 2.19921875 C-7.59123365 2.84791815 -9.32798892 3.51493448 -11.0625 4.1875 C-14.47182155 5.13050383 -17.47919625 5.14083215 -21 5 C-17.70212712 2.80141808 -14.86193643 1.91684826 -11.0625 0.8125 C-9.83660156 0.44769531 -8.61070312 0.08289062 -7.34765625 -0.29296875 C-4.29101247 -0.93853762 -2.84569773 -1.1197357 0 0 Z " fill="#919191" transform="translate(453,54)"/>
<path d="M0 0 C7.12384541 -0.66268329 13.30879185 1.74611936 20 4 C18.515625 5.1484375 18.515625 5.1484375 16 6 C13.12223827 5.33545663 10.519537 4.59384863 7.75 3.625 C6.63238281 3.25375 6.63238281 3.25375 5.4921875 2.875 C3.65698319 2.26326523 1.82784987 1.63337124 0 1 C0 0.67 0 0.34 0 0 Z " fill="#959595" transform="translate(447,34)"/>
<path d="M0 0 C0.33 1.32 0.66 2.64 1 4 C3.97 4 6.94 4 10 4 C10.33 3.01 10.66 2.02 11 1 C11 2.65 11 4.3 11 6 C6.71 6 2.42 6 -2 6 C-1 1 -1 1 0 0 Z " fill="#979797" transform="translate(394,73)"/>
<path d="M0 0 C1.65 0.33 3.3 0.66 5 1 C5 3.31 5 5.62 5 8 C2.04335481 9.4783226 -0.74229737 9.06032783 -4 9 C-4.33 8.01 -4.66 7.02 -5 6 C-3.59554165 3.7363436 -1.8032087 1.9791315 0 0 Z M0 2 C-2.34287418 4.67247634 -2.34287418 4.67247634 -3 8 C-1.02 8 0.96 8 3 8 C3.33 6.35 3.66 4.7 4 3 C2.68 2.67 1.36 2.34 0 2 Z " fill="#FDEFE6" transform="translate(380,42)"/>
<path d="M0 0 C2.475 0.99 2.475 0.99 5 2 C4.67 2.99 4.34 3.98 4 5 C3.01 5.33 2.02 5.66 1 6 C0.67 5.67 0.34 5.34 0 5 C0 6.65 0 8.3 0 10 C-0.66 10 -1.32 10 -2 10 C-2.33 10.66 -2.66 11.32 -3 12 C-2.88541307 10.56163249 -2.75790884 9.12429034 -2.625 7.6875 C-2.55539062 6.88699219 -2.48578125 6.08648437 -2.4140625 5.26171875 C-2 3 -2 3 0 0 Z " fill="#F8AD81" transform="translate(370,34)"/>
<path d="M0 0 C0.33 0.99 0.66 1.98 1 3 C-0.41488448 5.76239351 -1.80363095 7.80363095 -4 10 C-6.5 10.3125 -6.5 10.3125 -9 10 C-11 7 -11 7 -10.625 3.8125 C-10.41875 2.884375 -10.2125 1.95625 -10 1 C-9.67 1 -9.34 1 -9 1 C-8.67 2.98 -8.34 4.96 -8 7 C-5.58414426 6.96906827 -5.58414426 6.96906827 -3 6 C-1.14083176 3.03292954 -1.14083176 3.03292954 0 0 Z " fill="#FAE5D7" transform="translate(298,52)"/>
<path d="M0 0 C8.77578475 -0.76681614 8.77578475 -0.76681614 11.77734375 1.11328125 C13.125 2.5 13.125 2.5 15 5 C14.67 5.66 14.34 6.32 14 7 C13.21625 6.835 12.4325 6.67 11.625 6.5 C9.11791961 5.9376293 9.11791961 5.9376293 7 6 C7.33 4.35 7.66 2.7 8 1 C5.36 1 2.72 1 0 1 C0 0.67 0 0.34 0 0 Z M5 6 C5.66 6 6.32 6 7 6 C6.67 6.66 6.34 7.32 6 8 C5.67 7.34 5.34 6.68 5 6 Z " fill="#F7A776" transform="translate(346,34)"/>
<path d="M0 0 C0.33 0 0.66 0 1 0 C1.42765417 6.41481258 -0.14256832 11.88595404 -2 18 C-2.66 18 -3.32 18 -4 18 C-3.41632611 11.69632197 -1.95928381 6.01339937 0 0 Z " fill="#8E8E8E" transform="translate(409,55)"/>
<path d="M0 0 C0.99 0.66 1.98 1.32 3 2 C2.37351563 2.04898438 1.74703125 2.09796875 1.1015625 2.1484375 C0.28429687 2.22320312 -0.53296875 2.29796875 -1.375 2.375 C-2.18710938 2.44460937 -2.99921875 2.51421875 -3.8359375 2.5859375 C-6.20334191 2.82892588 -6.20334191 2.82892588 -8 5 C-10.625 5.125 -10.625 5.125 -13 5 C-13 4.01 -13 3.02 -13 2 C-12.01 2 -11.02 2 -10 2 C-6.31282562 -0.45811625 -4.35654296 -0.31118164 0 0 Z " fill="#F7BE9B" transform="translate(188,33)"/>
<path d="M0 0 C6.16618181 -0.40214229 11.17745757 1.03181664 17 3 C17 3.66 17 4.32 17 5 C10.95198929 4.45018084 5.69398894 3.09570426 0 1 C0 0.67 0 0.34 0 0 Z " fill="#929292" transform="translate(429,29)"/>
<path d="M0 0 C0.33 0 0.66 0 1 0 C2.17708468 4.56120312 2.51750695 9.31612353 2 14 C1.01 15.485 1.01 15.485 0 17 C-0.66 17 -1.32 17 -2 17 C-1.505 15.515 -1.505 15.515 -1 14 C-0.77439324 11.60745424 -0.59151405 9.21071877 -0.4375 6.8125 C-0.35371094 5.54019531 -0.26992188 4.26789062 -0.18359375 2.95703125 C-0.12300781 1.98121094 -0.06242187 1.00539062 0 0 Z " fill="#F9A375" transform="translate(268,41)"/>
<path d="M0 0 C2.29327525 1.44785148 3.34437719 2.79250293 5 5 C4.67 5.66 4.34 6.32 4 7 C2.0625 6.25 2.0625 6.25 0 5 C-0.75 2.875 -0.75 2.875 -1 1 C-3.64 1 -6.28 1 -9 1 C-9.33 1.66 -9.66 2.32 -10 3 C-10.66 2.34 -11.32 1.68 -12 1 C-8.29012673 -0.85493664 -4.03860349 -0.59596347 0 0 Z " fill="#F5B994" transform="translate(387,34)"/>
<path d="M0 0 C0.66 0.33 1.32 0.66 2 1 C1.8125 3.875 1.8125 3.875 1 7 C-1.5625 8.375 -1.5625 8.375 -4 9 C-5.5 7.8125 -5.5 7.8125 -7 6 C-7.1875 3.3125 -7.1875 3.3125 -7 1 C-6.773125 1.639375 -6.54625 2.27875 -6.3125 2.9375 C-5.14749104 5.27193661 -5.14749104 5.27193661 -2.375 5.75 C-1.59125 5.8325 -0.8075 5.915 0 6 C0 4.02 0 2.04 0 0 Z " fill="#FBE6D9" transform="translate(97,23)"/>
<path d="M0 0 C3.875 1.875 3.875 1.875 5 3 C5.04080783 4.99958364 5.04254356 7.00045254 5 9 C4.1028125 7.7934375 4.1028125 7.7934375 3.1875 6.5625 C1.19052724 3.77672016 1.19052724 3.77672016 -2 3 C-2 4.65 -2 6.3 -2 8 C-2.33 8 -2.66 8 -3 8 C-3.1875 5.125 -3.1875 5.125 -3 2 C-2.01 1.34 -1.02 0.68 0 0 Z " fill="#F6AE84" transform="translate(278,18)"/>
<path d="M0 0 C0.75 1.75 0.75 1.75 1 4 C-0.5625 6.125 -0.5625 6.125 -3 8 C-6.234375 8.390625 -6.234375 8.390625 -9.75 8.25 C-10.92046875 8.21390625 -12.0909375 8.1778125 -13.296875 8.140625 C-14.18890625 8.09421875 -15.0809375 8.0478125 -16 8 C-16 7.67 -16 7.34 -16 7 C-15.33613281 6.96261719 -14.67226562 6.92523438 -13.98828125 6.88671875 C-6.99169809 6.42231858 -6.99169809 6.42231858 -1 3 C-0.67 2.01 -0.34 1.02 0 0 Z " fill="#F9DAC7" transform="translate(224,52)"/>
<path d="M0 0 C2.625 -0.1875 2.625 -0.1875 5 0 C5 0.66 5 1.32 5 2 C3.68 2 2.36 2 1 2 C-0.485 7.445 -0.485 7.445 -2 13 C-2.33 13 -2.66 13 -3 13 C-2.88557539 11.39504433 -2.75805306 9.79101881 -2.625 8.1875 C-2.55539063 7.29417969 -2.48578125 6.40085937 -2.4140625 5.48046875 C-2 3 -2 3 0 0 Z " fill="#F7C3A2" transform="translate(93,34)"/>
<path d="M0 0 C0.33 0.66 0.66 1.32 1 2 C1.99 1.67 2.98 1.34 4 1 C3.50769231 6.53846154 3.50769231 6.53846154 0.9375 8.875 C-0.0215625 9.431875 -0.0215625 9.431875 -1 10 C-1.125 3.375 -1.125 3.375 0 0 Z " fill="#A6A6A8" transform="translate(396,62)"/>
<path d="M0 0 C3.3 0 6.6 0 10 0 C7.08235 1.9451 5.37462715 2.45276317 2 3 C1.67 5.97 1.34 8.94 1 12 C0.67 12 0.34 12 0 12 C0 8.04 0 4.08 0 0 Z " fill="#FDF8F5" transform="translate(376,61)"/>
<path d="M0 0 C0.99 0.33 1.98 0.66 3 1 C5.03581546 6.07320858 5.2295747 11.60499453 5 17 C2.98587423 15.3487324 2.05960888 14.55844113 1.77734375 11.9140625 C1.83019531 11.15867187 1.88304687 10.40328125 1.9375 9.625 C2.07654972 5.91902266 1.73432911 3.36026264 0 0 Z " fill="#F8C19E" transform="translate(158,34)"/>
<path d="M0 0 C-0.33 2.31 -0.66 4.62 -1 7 C-1.33 6.01 -1.66 5.02 -2 4 C-3.56249809 5.31201173 -3.56249809 5.31201173 -5 7 C-5 7.99 -5 8.98 -5 10 C-5.99 10 -6.98 10 -8 10 C-6.83833955 5.74057835 -5.25202969 0 0 0 Z " fill="#FCE5D9" transform="translate(258,39)"/>
<path d="M0 0 C0.33 0.66 0.66 1.32 1 2 C0.01 3.32 -0.98 4.64 -2 6 C-3.65 5.67 -5.3 5.34 -7 5 C-7.33 4.01 -7.66 3.02 -8 2 C-5.03 2.495 -5.03 2.495 -2 3 C-2 2.34 -2 1.68 -2 1 C-1.34 0.67 -0.68 0.34 0 0 Z " fill="#F88139" transform="translate(283,53)"/>
<path d="M0 0 C1.2065625 0.0309375 1.2065625 0.0309375 2.4375 0.0625 C2.4375 1.3825 2.4375 2.7025 2.4375 4.0625 C0.7875 3.7325 -0.8625 3.4025 -2.5625 3.0625 C-2.8925 4.7125 -3.2225 6.3625 -3.5625 8.0625 C-3.8925 8.0625 -4.2225 8.0625 -4.5625 8.0625 C-3.54737544 0.08652135 -3.54737544 0.08652135 0 0 Z " fill="#F6AE82" transform="translate(234.5625,33.9375)"/>
<path d="M0 0 C0.33 0 0.66 0 1 0 C0.88512252 1.58409994 0.75765492 3.16728963 0.625 4.75 C0.52058594 6.07257812 0.52058594 6.07257812 0.4140625 7.421875 C0.00149945 9.99066382 -0.71160957 11.75841015 -2 14 C-2.33 14 -2.66 14 -3 14 C-2.58846263 9.02906176 -2.20399168 4.55491614 0 0 Z " fill="#8A8A8B" transform="translate(421,11)"/>
<path d="M0 0 C0.33 0 0.66 0 1 0 C0.48594831 4.96916636 -0.23384882 9.29026351 -2 14 C-2.33 14 -2.66 14 -3 14 C-2.88512252 12.41590006 -2.75765492 10.83271037 -2.625 9.25 C-2.55539062 8.36828125 -2.48578125 7.4865625 -2.4140625 6.578125 C-2.00149945 4.00933618 -1.28839043 2.24158985 0 0 Z " fill="#8D8D8D" transform="translate(410,13)"/>
<path d="M0 0 C0 1.65 0 3.3 0 5 C-1.32 4.67 -2.64 4.34 -4 4 C-5.01111093 7.04913228 -5.01111093 7.04913228 -4 10 C-4.99 10 -5.98 10 -7 10 C-6.69120892 6.39743742 -4.47407556 0 0 0 Z " fill="#FBE9DF" transform="translate(151,39)"/>
<path d="M0 0 C1.08667969 0.28746094 2.17335938 0.57492188 3.29296875 0.87109375 C4.12441406 1.09925781 4.95585937 1.32742187 5.8125 1.5625 C5.8125 1.8925 5.8125 2.2225 5.8125 2.5625 C4.06179483 2.44779863 2.31192464 2.32030972 0.5625 2.1875 C-0.41203125 2.11789063 -1.3865625 2.04828125 -2.390625 1.9765625 C-5.08383189 1.57784751 -6.85713279 0.92742937 -9.1875 -0.4375 C-5.46983332 -1.67672223 -3.74860463 -1.00768942 0 0 Z " fill="#979797" transform="translate(433.1875,39.4375)"/>
<path d="M0 0 C1.32 0.66 2.64 1.32 4 2 C4 4.31 4 6.62 4 9 C2.35 8.67 0.7 8.34 -1 8 C-0.34 7.34 0.32 6.68 1 6 C0.67801034 2.90073181 0.67801034 2.90073181 0 0 Z " fill="#F69558" transform="translate(218,31)"/>
<path d="M0 0 C-3.27392117 3.42982217 -6.58121242 5.32802632 -11 7 C-8.76456876 1.59770784 -5.88000164 -0.49000014 0 0 Z " fill="#FAC2A1" transform="translate(313,16)"/>
<path d="M0 0 C0.66 0.33 1.32 0.66 2 1 C-0.625 5.875 -0.625 5.875 -4 7 C-4.33 7.99 -4.66 8.98 -5 10 C-5.66 10 -6.32 10 -7 10 C-5.6062718 5.56541027 -3.39417765 3.12621626 0 0 Z " fill="#F5B188" transform="translate(143,33)"/>
<path d="M0 0 C0.33 0.66 0.66 1.32 1 2 C2.36125 1.4740625 2.36125 1.4740625 3.75 0.9375 C6.87758436 0.03531221 8.05208081 -0.13381507 11 1 C7.14243493 3.15305957 4.44870215 4.39253254 0 4 C0 2.68 0 1.36 0 0 Z " fill="#F88541" transform="translate(248,54)"/>
<path d="M0 0 C0.66 0.33 1.32 0.66 2 1 C1.3125 3.375 1.3125 3.375 0 6 C-2.625 7.3125 -2.625 7.3125 -5 8 C-3.8141763 4.62496331 -2.72426311 2.35277269 0 0 Z " fill="#F7A67A" transform="translate(207,32)"/>
<path d="M0 0 C0.66 0.66 1.32 1.32 2 2 C1.7578125 4.6015625 1.7578125 4.6015625 1.125 7.625 C0.81949219 9.12933594 0.81949219 9.12933594 0.5078125 10.6640625 C0.34023438 11.43492188 0.17265625 12.20578125 0 13 C-1.44977894 10.65887549 -2.04314411 9.4203071 -1.7578125 6.640625 C-1.54898437 5.85171875 -1.34015625 5.0628125 -1.125 4.25 C-0.92132813 3.45078125 -0.71765625 2.6515625 -0.5078125 1.828125 C-0.34023438 1.22484375 -0.17265625 0.6215625 0 0 Z " fill="#9E9E9E" transform="translate(417,23)"/>
<path d="M0 0 C2.97 0.495 2.97 0.495 6 1 C3 3 3 3 1 3 C0.34 4.65 -0.32 6.3 -1 8 C-2 5 -2 5 -2 2 C-1.34 2 -0.68 2 0 2 C0 1.34 0 0.68 0 0 Z " fill="#FA8640" transform="translate(346,40)"/>
<path d="M0 0 C2.31 0.33 4.62 0.66 7 1 C3.125 4 3.125 4 2 4 C1.67 6.31 1.34 8.62 1 11 C0.67 11 0.34 11 0 11 C0 7.37 0 3.74 0 0 Z " fill="#ABABAB" transform="translate(425,27)"/>
<path d="M0 0 C1.6744239 0.6469365 3.34302621 1.30959426 5 2 C5 2.33 5 2.66 5 3 C3.741875 2.87625 2.48375 2.7525 1.1875 2.625 C0.12595703 2.52058594 0.12595703 2.52058594 -0.95703125 2.4140625 C-3 2 -3 2 -6 0 C-3.43417606 -1.28291197 -2.6963913 -0.84743727 0 0 Z " fill="#787878" transform="translate(30,44)"/>
<path d="M0 0 C0.33 0 0.66 0 1 0 C1.33 1.98 1.66 3.96 2 6 C0.35 7.32 -1.3 8.64 -3 10 C-2.49287967 6.28111761 -1.88391785 3.26545761 0 0 Z " fill="#F6AF84" transform="translate(295,35)"/>
<path d="M0 0 C0.66 0.33 1.32 0.66 2 1 C-1.3340947 3.19097652 -4.04179141 4.43454163 -8 5 C-7.67 3.68 -7.34 2.36 -7 1 C-5.5459375 1.0309375 -5.5459375 1.0309375 -4.0625 1.0625 C-1.12534105 1.35618499 -1.12534105 1.35618499 0 0 Z " fill="#F87B30" transform="translate(346,35)"/>
<path d="M0 0 C0.33 0.99 0.66 1.98 1 3 C-1.97 3.66 -4.94 4.32 -8 5 C-8 4.34 -8 3.68 -8 3 C-2.25 0 -2.25 0 0 0 Z " fill="#FCE8DD" transform="translate(261,54)"/>
<path d="M0 0 C2.475 0.99 2.475 0.99 5 2 C4.67 3.32 4.34 4.64 4 6 C3.34 6 2.68 6 2 6 C0.375 4 0.375 4 -1 2 C-0.67 1.34 -0.34 0.68 0 0 Z " fill="#FD7726" transform="translate(215,32)"/>
<path d="M0 0 C0.33 0 0.66 0 1 0 C1.1953125 6.0546875 1.1953125 6.0546875 1 8 C0.34 8.66 -0.32 9.32 -1 10 C-2.15837626 5.94568308 -1.83691257 3.78187881 0 0 Z " fill="#F78344" transform="translate(392,45)"/>
<path d="M0 0 C0.99 0 1.98 0 3 0 C3.33 0.99 3.66 1.98 4 3 C3.34 3 2.68 3 2 3 C2 3.66 2 4.32 2 5 C0.68 5 -0.64 5 -2 5 C-1.34 3.35 -0.68 1.7 0 0 Z " fill="#FA9C63" transform="translate(149,44)"/>
<path d="M0 0 C-3.00617269 3.00617269 -5.82381598 2.59585316 -10 3 C-10 2.34 -10 1.68 -10 1 C-6.61981469 -0.04005702 -3.5219721 -0.08004482 0 0 Z " fill="#929292" transform="translate(34,32)"/>
<path d="M0 0 C0.226875 0.639375 0.45375 1.27875 0.6875 1.9375 C1.85250896 4.27193661 1.85250896 4.27193661 4.625 4.75 C5.40875 4.8325 6.1925 4.915 7 5 C7 5.66 7 6.32 7 7 C5.1875 7.6875 5.1875 7.6875 3 8 C1.25 6.875 1.25 6.875 0 5 C-0.1875 2.3125 -0.1875 2.3125 0 0 Z " fill="#FCEEE5" transform="translate(229,24)"/>
<path d="M0 0 C3.71888239 0.50712033 6.73454239 1.11608215 10 3 C8.72125 3.061875 7.4425 3.12375 6.125 3.1875 C5.40570312 3.22230469 4.68640625 3.25710937 3.9453125 3.29296875 C3.30335937 3.19628906 2.66140625 3.09960938 2 3 C1.34 2.01 0.68 1.02 0 0 Z " fill="#888888" transform="translate(11,50)"/>
<path d="M0 0 C6.75 0.75 6.75 0.75 9 3 C7.02 3.33 5.04 3.66 3 4 C2.01 2.68 1.02 1.36 0 0 Z " fill="#6E6E6E" transform="translate(440,42)"/>
<path d="M0 0 C6.625 -0.25 6.625 -0.25 10 2 C6.18510326 3.46726798 3.70988378 2.43336419 0 1 C0 0.67 0 0.34 0 0 Z " fill="#9B9B9B" transform="translate(447,34)"/>
<path d="M0 0 C-2.76223278 2.76223278 -5.20706617 2.57856291 -9 3 C-9 2.34 -9 1.68 -9 1 C-5.8035914 -0.06546953 -3.34252724 -0.07427838 0 0 Z " fill="#898989" transform="translate(44,29)"/>
</svg>
